<svg width="20" height="21" viewBox="0 0 20 21" fill="none" xmlns="http://www.w3.org/2000/svg">
<path d="M13.3333 3V6.33333M6.66659 3V6.33333M3.33325 9.66667H16.6666M9.16659 13H9.99992V15.5M3.33325 6.33333C3.33325 5.89131 3.50885 5.46738 3.82141 5.15482C4.13397 4.84226 4.55789 4.66667 4.99992 4.66667H14.9999C15.4419 4.66667 15.8659 4.84226 16.1784 5.15482C16.491 5.46738 16.6666 5.89131 16.6666 6.33333V16.3333C16.6666 16.7754 16.491 17.1993 16.1784 17.5118C15.8659 17.8244 15.4419 18 14.9999 18H4.99992C4.55789 18 4.13397 17.8244 3.82141 17.5118C3.50885 17.1993 3.33325 16.7754 3.33325 16.3333V6.33333Z" stroke="#B5B5B5" stroke-width="1.5" stroke-linecap="round" stroke-linejoin="round"/>
</svg>
