<svg width="49" height="48" viewBox="0 0 49 48" fill="none" xmlns="http://www.w3.org/2000/svg">
<path opacity="0.85" fill-rule="evenodd" clip-rule="evenodd" d="M0.333252 24V40C0.333252 44.4183 3.91497 48 8.33325 48H24.3333H40.3333C44.7515 48 48.3333 44.4183 48.3333 40V24V8C48.3333 3.58172 44.7515 0 40.3333 0H24.3333H8.33325C3.91497 0 0.333252 3.58172 0.333252 8V24Z" fill="#00B69B"/>
<path fill-rule="evenodd" clip-rule="evenodd" d="M12.3333 19.4532L22.6536 25.4116C22.7648 25.4758 22.8813 25.5222 22.9999 25.5516V37.1078L13.0693 31.2308C12.6131 30.9608 12.3333 30.47 12.3333 29.9399V19.4532ZM36.3333 19.2948V29.9399C36.3333 30.4701 36.0534 30.9608 35.5972 31.2308L25.6666 37.1078V25.4504C25.6908 25.4383 25.7148 25.4254 25.7385 25.4117L36.3333 19.2948Z" fill="white"/>
<path opacity="0.499209" fill-rule="evenodd" clip-rule="evenodd" d="M12.6575 16.5611C12.7835 16.4019 12.9426 16.2674 13.1281 16.1686L23.6281 10.5761C24.0689 10.3413 24.5977 10.3413 25.0384 10.5761L35.5384 16.1686C35.6814 16.2448 35.8088 16.3422 35.9173 16.4557L24.4052 23.1023C24.3295 23.146 24.2597 23.196 24.1961 23.2512C24.1325 23.196 24.0627 23.146 23.987 23.1023L12.6575 16.5611Z" fill="white"/>
</svg>
