<svg width="48" height="48" viewBox="0 0 48 48" fill="none" xmlns="http://www.w3.org/2000/svg">
<path opacity="0.85" fill-rule="evenodd" clip-rule="evenodd" d="M0.000244141 24V40C0.000244141 44.4183 3.58197 48 8.00025 48H24.0002H40.0002C44.4185 48 48.0002 44.4183 48.0002 40V24V8C48.0002 3.58172 44.4185 0 40.0002 0H24.0002H8.00024C3.58197 0 0.000244141 3.58172 0.000244141 8V24Z" fill="#3DADFE"/>
<path fill-rule="evenodd" clip-rule="evenodd" d="M12.0002 19.4532L22.3206 25.4116C22.4318 25.4758 22.5483 25.5222 22.6669 25.5516V37.1078L12.7363 31.2308C12.2801 30.9608 12.0002 30.47 12.0002 29.9399V19.4532ZM36.0002 19.2948V29.9399C36.0002 30.4701 35.7204 30.9608 35.2642 31.2308L25.3336 37.1078V25.4504C25.3578 25.4383 25.3818 25.4254 25.4055 25.4117L36.0002 19.2948Z" fill="white"/>
<path opacity="0.499209" fill-rule="evenodd" clip-rule="evenodd" d="M12.3245 16.5611C12.4505 16.4019 12.6096 16.2674 12.7951 16.1686L23.2951 10.5761C23.7359 10.3413 24.2646 10.3413 24.7054 10.5761L35.2054 16.1686C35.3484 16.2448 35.4757 16.3422 35.5843 16.4557L24.0722 23.1023C23.9965 23.146 23.9267 23.196 23.8631 23.2512C23.7995 23.196 23.7297 23.146 23.654 23.1023L12.3245 16.5611Z" fill="white"/>
</svg>
