<svg width="49" height="48" viewBox="0 0 49 48" fill="none" xmlns="http://www.w3.org/2000/svg">
<path opacity="0.85" fill-rule="evenodd" clip-rule="evenodd" d="M0.666626 24V40C0.666626 44.4183 4.24835 48 8.66663 48H24.6666H40.6666C45.0849 48 48.6666 44.4183 48.6666 40V24V8C48.6666 3.58172 45.0849 0 40.6666 0H24.6666H8.66663C4.24835 0 0.666626 3.58172 0.666626 8V24Z" fill="#FEC53D"/>
<path fill-rule="evenodd" clip-rule="evenodd" d="M12.6666 19.4532L22.987 25.4116C23.0981 25.4758 23.2147 25.5222 23.3333 25.5516V37.1078L13.4027 31.2308C12.9465 30.9608 12.6666 30.47 12.6666 29.9399L12.6666 19.4532ZM36.6666 19.2948V29.9399C36.6666 30.4701 36.3868 30.9608 35.9306 31.2308L26 37.1078V25.4504C26.0242 25.4383 26.0481 25.4254 26.0719 25.4117L36.6666 19.2948Z" fill="white"/>
<path opacity="0.499209" fill-rule="evenodd" clip-rule="evenodd" d="M12.9908 16.5611C13.1169 16.4019 13.276 16.2674 13.4615 16.1686L23.9615 10.5761C24.4023 10.3413 24.931 10.3413 25.3718 10.5761L35.8718 16.1686C36.0148 16.2448 36.1421 16.3422 36.2507 16.4557L24.7386 23.1023C24.6629 23.146 24.5931 23.196 24.5295 23.2512C24.4659 23.196 24.3961 23.146 24.3204 23.1023L12.9908 16.5611Z" fill="white"/>
</svg>
