<svg width="174" height="51" viewBox="0 0 174 51" fill="none" xmlns="http://www.w3.org/2000/svg">
<path d="M14.514 22.9144C12.1646 21.0549 10.8906 17.994 10.7017 13.7237C10.3351 5.57351 14.5448 1.31351 23.3335 1.03327C25.4619 0.965502 27.447 1.14008 29.2877 1.55242C31.1284 1.9659 32.5049 2.44599 33.4172 2.98811C33.495 5.51838 33.5728 8.04865 33.6506 10.5789C30.9766 10.6501 28.3038 10.7271 25.631 10.8086C25.6051 10.0805 25.5791 9.35112 25.5532 8.62293C25.5261 7.85455 25.3162 7.2929 24.9236 6.9403C24.531 6.58769 23.9545 6.42345 23.1953 6.44757C22.436 6.47169 21.8731 6.67268 21.5076 7.04941C21.141 7.42614 20.9743 7.99927 21.0027 8.76765C21.1188 11.824 21.2348 14.8791 21.3509 17.9354C21.3805 18.705 21.5904 19.2655 21.9805 19.6169C22.3706 19.9695 22.9422 20.1326 23.6965 20.1085C24.4495 20.0844 25.0076 19.8845 25.3717 19.509C25.7359 19.1334 25.9038 18.5614 25.8767 17.7919C25.847 16.9718 25.8187 16.1529 25.789 15.3328C28.4556 15.2513 31.121 15.1743 33.7876 15.1042C33.8678 17.7253 33.9493 20.3474 34.0296 22.9684C33.1395 23.5599 31.8123 24.1124 30.0494 24.6281C28.2853 25.1449 26.3668 25.4344 24.2915 25.4998C20.1175 25.6319 16.8621 24.7751 14.5115 22.9144H14.514Z" fill="url(#paint0_linear_1788_21467)"/>
<path d="M35.1955 19.7765C35.7498 19.7616 36.3029 19.7478 36.8572 19.734C36.7251 15.1789 36.593 10.6248 36.4609 6.06965C35.9029 6.08343 35.3436 6.09836 34.7856 6.11215C34.7362 4.45248 34.6856 2.79282 34.6362 1.132C39.7769 0.998769 44.9187 0.885066 50.0606 0.790884C52.9506 0.73805 55.1678 1.23997 56.7086 2.2909C58.2493 3.34183 59.0369 5.07271 59.0752 7.48238C59.0974 8.83883 58.8147 10.0184 58.2295 11.0188C57.6443 12.0192 56.7999 12.721 55.6938 13.1218C55.7061 13.2229 55.7197 13.3239 55.732 13.425C57.8727 13.6961 58.9591 14.8768 58.9925 16.9614C59.0048 17.7413 59.0171 18.52 59.0295 19.2999C59.5505 19.293 60.0714 19.2861 60.5924 19.2792C60.6171 20.94 60.643 22.5997 60.6677 24.2605C57.1653 24.3064 53.6617 24.3616 50.1593 24.4259C50.1087 22.0472 50.0581 19.6686 50.0075 17.2888C49.9902 16.4997 49.8495 15.9048 49.5865 15.5039C49.3223 15.1042 48.9161 14.8377 48.3692 14.7068C47.8211 14.5759 47.0471 14.5196 46.0471 14.5403C46.0866 16.1999 46.1249 17.8607 46.1644 19.5204C46.8952 19.5055 47.6273 19.4906 48.3581 19.4768C48.3952 21.1364 48.4322 22.7972 48.4692 24.4569C44.094 24.5419 39.7188 24.6407 35.3436 24.7544C35.2942 23.0947 35.2436 21.4351 35.1942 19.7742L35.1955 19.7765ZM47.7643 10.8006C48.41 10.7879 48.8914 10.6225 49.2075 10.3021C49.5235 9.98279 49.6754 9.48776 49.6606 8.82045C49.6532 8.45635 49.6445 8.09112 49.6371 7.72703C49.6223 7.05856 49.4507 6.57158 49.1198 6.26261C48.789 5.9548 48.3001 5.80778 47.652 5.82042C47.0483 5.8319 46.4458 5.84453 45.8421 5.85602C45.8816 7.51569 45.9199 9.1765 45.9594 10.8362C46.5606 10.8235 47.1619 10.812 47.7631 10.8006H47.7643Z" fill="url(#paint1_linear_1788_21467)"/>
<path d="M74.861 0.494243C78.3004 0.473569 81.7398 0.463235 85.1792 0.460938C85.1805 2.12175 85.1817 3.78256 85.1829 5.44223C84.736 5.44223 84.2891 5.44223 83.8422 5.44338C81.6917 8.94992 79.5547 12.4599 77.43 15.9722C77.4362 17.0254 77.4411 18.0787 77.4473 19.1307C78.0016 19.1284 78.5559 19.1261 79.1102 19.1238C79.1177 20.7847 79.1251 22.4443 79.1325 24.1051C74.9338 24.1212 70.7339 24.1499 66.5352 24.1924C66.5155 22.5316 66.4957 20.8719 66.4772 19.2111C67.0315 19.2054 67.5858 19.1996 68.1401 19.1951C68.129 18.1418 68.1179 17.0886 68.1056 16.0365C65.8587 12.5541 63.5983 9.07512 61.323 5.60073C60.8761 5.60647 60.4292 5.61221 59.9823 5.61796C59.9564 3.95714 59.9317 2.29748 59.9058 0.636663C64.2415 0.579235 68.5772 0.535595 72.9129 0.505733C72.9264 2.16655 72.9388 3.82621 72.9524 5.48702C72.561 5.48932 72.1709 5.49277 71.7796 5.49507C72.4524 7.0594 73.1227 8.62488 73.7919 10.1892C73.903 10.1892 74.0141 10.1881 74.1264 10.1869C74.7721 8.6134 75.4202 7.03987 76.0696 5.46749C75.6782 5.46979 75.2881 5.47209 74.8968 5.47439C74.8857 3.81357 74.8745 2.15391 74.8634 0.493093L74.861 0.494243Z" fill="url(#paint2_linear_1788_21467)"/>
<path d="M86.2615 19.1093C86.8158 19.1093 87.3701 19.1093 87.9244 19.1093C87.9281 14.5529 87.9318 9.9966 87.9355 5.44028C87.3775 5.44028 86.8183 5.44028 86.2603 5.44028C86.2603 3.77946 86.2603 2.11865 86.2603 0.458984C91.1787 0.458984 96.0971 0.475066 101.015 0.510671C103.907 0.531345 106.108 1.11481 107.617 2.25533C109.125 3.3947 109.86 5.22205 109.826 7.7328C109.792 10.2435 109.01 12.0514 107.484 13.1597C105.957 14.2681 103.764 14.8079 100.897 14.7872C99.6859 14.7781 98.4748 14.7712 97.2637 14.7643C97.2551 16.2218 97.2452 17.6805 97.2365 19.138C98.3007 19.1437 99.3649 19.1506 100.428 19.1575C100.414 20.8183 100.401 22.478 100.387 24.1388C95.6798 24.1055 90.9713 24.0894 86.264 24.0906C86.264 22.4297 86.264 20.7701 86.264 19.1093H86.2615ZM98.4242 10.4572C99.7155 10.4652 100.367 9.82202 100.378 8.5253C100.381 8.16121 100.385 7.79597 100.387 7.43188C100.392 6.76342 100.234 6.27183 99.913 5.95483C99.5908 5.63898 99.1069 5.47818 98.4587 5.47473C98.0785 5.47244 97.6995 5.47014 97.3193 5.46784C97.3094 7.12866 97.2983 8.78832 97.2884 10.4491C97.6674 10.4514 98.0464 10.4537 98.4242 10.456V10.4572Z" fill="url(#paint3_linear_1788_21467)"/>
<path d="M135.924 8.41927C134.006 8.37218 132.087 8.32739 130.169 8.28489C130.189 7.49583 130.208 6.70563 130.228 5.91657C129.513 5.90049 128.799 5.88556 128.084 5.87062C127.974 10.4258 127.865 14.981 127.755 19.5362C128.531 19.5522 129.307 19.5683 130.083 19.5855C130.041 21.2452 129.999 22.906 129.957 24.5657C125.316 24.4635 120.675 24.3785 116.035 24.3096C116.063 22.6488 116.091 20.9891 116.121 19.3283C116.896 19.3398 117.673 19.3524 118.448 19.3639C118.533 14.8087 118.617 10.2524 118.703 5.69719C117.988 5.68571 117.273 5.67422 116.558 5.66389C116.545 6.45409 116.531 7.24315 116.517 8.03336C114.599 8.00464 112.68 7.97823 110.761 7.95526C110.795 5.50539 110.83 3.05551 110.863 0.604492C119.288 0.706714 127.712 0.861769 136.134 1.07081C136.064 3.52068 135.995 5.9694 135.924 8.41927Z" fill="url(#paint4_linear_1788_21467)"/>
<path d="M139.758 22.3152C137.617 20.3133 136.604 17.1789 136.727 12.9074C136.851 8.63706 138.051 5.55663 140.337 3.67299C142.622 1.78936 145.821 0.906125 149.922 1.03591C154.022 1.1657 157.149 2.24879 159.292 4.27255C161.435 6.2963 162.408 9.44564 162.219 13.7148C162.032 17.984 160.79 21.0472 158.508 22.909C156.224 24.772 153.069 25.6323 149.027 25.5048C144.985 25.3773 141.899 24.3183 139.758 22.3164V22.3152ZM150.941 19.6081C151.331 19.2555 151.541 18.6961 151.57 17.9266C151.686 14.8703 151.802 11.8151 151.917 8.75881C151.947 7.99042 151.778 7.41729 151.412 7.04057C151.046 6.66384 150.484 6.46399 149.725 6.43987C148.965 6.41575 148.389 6.57999 147.996 6.9326C147.604 7.28521 147.394 7.84686 147.367 8.61524C147.259 11.6716 147.152 14.7279 147.043 17.7842C147.015 18.5732 147.184 19.151 147.548 19.5173C147.912 19.8837 148.47 20.0778 149.225 20.102C149.978 20.1261 150.549 19.9618 150.941 19.6104V19.6081Z" fill="url(#paint5_linear_1788_21467)"/>
<path d="M1.32566 50.999C1.24171 49.3405 1.15777 47.682 1.07382 46.0234C1.61949 45.9993 2.16515 45.9764 2.71082 45.9522C2.48489 41.4005 2.25774 36.8499 2.03182 32.2982C1.48122 32.3223 0.931846 32.3453 0.381242 32.3694C0.297293 30.7109 0.213343 29.0524 0.129395 27.3939C4.78484 27.1894 9.44152 27.0022 14.0982 26.8311C14.1686 28.4907 14.2389 30.1492 14.3093 31.8089C13.297 31.8457 12.2847 31.8847 11.2723 31.9226C11.4736 36.4755 11.676 41.0272 11.8773 45.5801C12.86 45.5422 13.8414 45.5055 14.8241 45.4698C14.7846 44.5395 14.7451 43.608 14.7056 42.6777C16.8809 42.5973 19.0573 42.5215 21.2326 42.448C21.3326 45.038 21.4326 47.6291 21.5326 50.2191C14.7957 50.4442 8.06007 50.705 1.32566 51.0002V50.999Z" fill="url(#paint6_linear_1788_21467)"/>
<path d="M25.6109 47.5932C23.3715 45.7187 22.1653 42.6486 22.0024 38.3783C21.8394 34.1091 22.8135 30.9655 24.9369 28.9532C27.059 26.9421 30.1466 25.8751 34.1885 25.7683C38.2304 25.6614 41.3772 26.5619 43.6204 28.457C45.8635 30.3533 47.029 33.4395 47.1277 37.711C47.2265 41.9836 46.2104 45.1111 44.0907 47.1027C41.9698 49.0932 38.923 50.1349 34.9403 50.2406C30.9577 50.3463 27.8516 49.4688 25.6122 47.5932H25.6109ZM36.4267 44.2463C36.7872 43.8718 36.9563 43.301 36.9341 42.5315C36.844 39.4752 36.7551 36.4177 36.665 33.3614C36.6428 32.5918 36.4391 32.0302 36.0539 31.6753C35.6687 31.3204 35.1021 31.1527 34.3539 31.1734C33.6058 31.1929 33.0503 31.3904 32.6873 31.7649C32.3244 32.1393 32.1565 32.7113 32.1812 33.4808C32.2787 36.5371 32.3774 39.5934 32.475 42.6498C32.4997 43.4388 32.7034 44.0062 33.0873 44.3496C33.47 44.6942 34.0317 44.8561 34.7749 44.8355C35.5169 44.8159 36.0687 44.6195 36.4292 44.2451L36.4267 44.2463Z" fill="url(#paint7_linear_1788_21467)"/>
<path d="M72.7466 32.8954C70.8553 32.9092 68.9652 32.9252 67.0739 32.9436C67.0653 32.1534 67.0554 31.3643 67.0467 30.5741C66.3418 30.581 65.6381 30.5891 64.9332 30.596C64.9912 35.1523 65.0493 39.7075 65.1073 44.2638C65.8715 44.2558 66.6356 44.2477 67.4011 44.2397C67.4196 45.9005 67.4393 47.5602 67.4578 49.221C62.8851 49.2658 58.3111 49.3266 53.7384 49.4047C53.7063 47.7451 53.6742 46.0843 53.6409 44.4246C54.4051 44.412 55.1692 44.3993 55.9347 44.3867C55.8519 39.8315 55.7692 35.2752 55.6865 30.72C54.9816 30.7315 54.2779 30.743 53.573 30.7545C53.5878 31.5435 53.6038 32.3337 53.6187 33.1228C51.7274 33.1549 49.8373 33.1894 47.946 33.2262C47.8904 30.7763 47.8349 28.3264 47.7793 25.8765C56.0816 25.7134 64.3838 25.602 72.6874 25.5435C72.7071 27.9933 72.7269 30.4444 72.7478 32.8942L72.7466 32.8954Z" fill="url(#paint8_linear_1788_21467)"/>
<path d="M98.4649 32.8838C96.5735 32.8723 94.6835 32.8631 92.7922 32.8574C92.7946 32.0671 92.7983 31.2781 92.8008 30.4879C92.0959 30.4856 91.3922 30.4833 90.6873 30.4821C90.6762 35.0385 90.665 39.5948 90.6539 44.1511C91.4181 44.1523 92.1823 44.1546 92.9477 44.1569C92.9415 45.8177 92.9354 47.4773 92.9292 49.1382C88.3565 49.1232 83.7825 49.1244 79.2098 49.1416C79.2024 47.4808 79.1949 45.8211 79.1875 44.1603C79.9517 44.1569 80.7159 44.1546 81.4813 44.1534C81.4677 39.5971 81.4542 35.0408 81.4393 30.4844C80.7344 30.4867 80.0307 30.489 79.3258 30.4913C79.3295 31.2815 79.332 32.0706 79.3357 32.8608C77.4444 32.8677 75.5543 32.878 73.663 32.8895C73.6445 30.4396 73.6259 27.9886 73.6074 25.5387C81.9109 25.4836 90.2144 25.4813 98.5167 25.5319C98.4994 27.9817 98.4821 30.4328 98.4649 32.8826V32.8838Z" fill="url(#paint9_linear_1788_21467)"/>
<path d="M99.4702 49.1726C99.4826 47.5118 99.4961 45.8521 99.5085 44.1913C100.054 44.1947 100.601 44.1982 101.147 44.2028C101.186 39.6464 101.226 35.0901 101.264 30.5338C100.713 30.5292 100.163 30.5258 99.6122 30.5223C99.6245 28.8615 99.6381 27.2018 99.6505 25.541C107.103 25.5904 114.556 25.6823 122.008 25.8155C121.945 28.873 121.881 31.9304 121.818 34.9868C119.359 34.9431 116.898 34.9029 114.439 34.8684C114.462 33.4718 114.485 32.074 114.508 30.6774C113.176 30.659 111.844 30.6406 110.512 30.6245C110.49 32.2245 110.467 33.8233 110.444 35.4232C111.409 35.4347 112.376 35.4473 113.342 35.4611C113.323 36.6154 113.306 37.7697 113.287 38.924C112.323 38.9114 111.359 38.8987 110.395 38.8872C110.369 40.6893 110.344 42.4914 110.319 44.2935C111.64 44.3096 112.963 44.3268 114.283 44.3452C114.309 42.7453 114.335 41.1465 114.362 39.5465C116.815 39.581 119.269 39.6212 121.722 39.6648C121.654 42.9244 121.586 46.184 121.519 49.4436C114.17 49.3116 106.821 49.222 99.4702 49.1726Z" fill="url(#paint10_linear_1788_21467)"/>
<path d="M122.861 44.4836C123.407 44.4939 123.954 44.5042 124.5 44.5146C124.602 39.9594 124.704 35.4042 124.806 30.849C124.255 30.8387 123.705 30.8284 123.154 30.818C123.19 29.1584 123.225 27.4976 123.261 25.8379C128.329 25.9321 133.396 26.0458 138.462 26.179C141.31 26.2537 143.467 26.8532 144.93 27.9708C146.393 29.0883 147.079 30.8525 146.994 33.2599C146.946 34.6163 146.608 35.781 145.981 36.7549C145.353 37.7289 144.486 38.3916 143.377 38.7442C143.384 38.8453 143.392 38.9475 143.399 39.0486C145.493 39.4138 146.501 40.6405 146.427 42.7251C146.4 43.5039 146.372 44.2837 146.345 45.0624C146.858 45.0785 147.371 45.0946 147.884 45.1107C147.824 46.7703 147.763 48.43 147.704 50.0897C144.253 49.9817 140.803 49.8818 137.352 49.7922C137.424 47.4135 137.496 45.0349 137.567 42.6574C137.591 41.8683 137.483 41.2676 137.244 40.8564C137.004 40.4452 136.618 40.1615 136.086 40.0065C135.554 39.8514 134.794 39.7607 133.809 39.7377C133.764 41.3974 133.717 43.0582 133.671 44.7179C134.392 44.7351 135.112 44.7535 135.833 44.7707C135.784 46.4304 135.736 48.09 135.687 49.7509C131.376 49.6417 127.065 49.5476 122.754 49.4672C122.79 47.8075 122.826 46.1467 122.861 44.487V44.4836ZM135.691 36.0738C136.326 36.0899 136.809 35.9452 137.136 35.6397C137.463 35.3342 137.638 34.8472 137.659 34.1799C137.67 33.8158 137.681 33.4517 137.692 33.0864C137.712 32.418 137.567 31.9241 137.257 31.6014C136.947 31.2798 136.473 31.1098 135.835 31.0948C135.241 31.0799 134.646 31.065 134.052 31.0512C134.007 32.7109 133.96 34.3705 133.914 36.0313C134.507 36.0451 135.099 36.0601 135.692 36.075L135.691 36.0738Z" fill="url(#paint11_linear_1788_21467)"/>
<path d="M162.902 26.9742C166.29 27.1051 169.677 27.2453 173.063 27.3934C172.98 29.0519 172.896 30.7105 172.812 32.369C172.372 32.3494 171.931 32.3311 171.492 32.3115C169.194 35.7193 166.909 39.1317 164.638 42.5463C164.59 43.5984 164.54 44.6505 164.492 45.7026C165.038 45.7244 165.583 45.7462 166.129 45.7692C166.051 47.4277 165.972 49.0874 165.895 50.7459C161.76 50.577 157.624 50.422 153.489 50.2796C153.554 48.6199 153.621 46.9614 153.686 45.3017C154.232 45.3201 154.778 45.3396 155.323 45.3592C155.366 44.3071 155.408 43.255 155.452 42.2018C153.418 38.624 151.37 35.0497 149.31 31.4788C148.869 31.4651 148.429 31.4513 147.989 31.4375C148.048 29.7778 148.109 28.1182 148.168 26.4585C152.439 26.5917 156.71 26.7387 160.981 26.9007C160.908 28.5604 160.837 30.2189 160.764 31.8785C160.379 31.8636 159.993 31.8498 159.608 31.8349C160.19 33.4268 160.77 35.0198 161.349 36.6129C161.459 36.6175 161.569 36.6209 161.679 36.6255C162.396 35.0819 163.114 33.5393 163.834 31.9968C163.449 31.9819 163.064 31.967 162.679 31.952C162.753 30.2924 162.827 28.6339 162.901 26.9742H162.902Z" fill="url(#paint12_linear_1788_21467)"/>
<path d="M23.4664 24.4398C20.0159 24.4398 17.2839 23.6623 15.3456 22.1278C13.2889 20.4991 12.1581 17.6978 11.9865 13.8019C11.8186 10.0679 12.6753 7.22871 14.5333 5.36345C16.3901 3.4982 19.3653 2.48861 23.3739 2.35997C23.6541 2.35079 23.9368 2.34619 24.2121 2.34619C25.8985 2.34619 27.5021 2.51389 28.9824 2.84697C30.3083 3.14444 31.3687 3.47408 32.1452 3.83013L32.3206 9.54306C30.5046 9.59244 28.6811 9.64528 26.8738 9.69926L26.8392 8.71264C26.8009 7.62496 26.4565 6.78193 25.817 6.2065C25.2022 5.65404 24.3677 5.37494 23.3368 5.37494C23.2751 5.37494 23.2134 5.37494 23.1492 5.37839C22.0307 5.41399 21.1554 5.74937 20.548 6.37533C19.9517 6.98866 19.6702 7.85123 19.7122 8.94006L20.0603 18.1078C20.1011 19.1944 20.4455 20.0351 21.0813 20.6094C21.6936 21.1619 22.5245 21.4421 23.5516 21.4421C23.6134 21.4421 23.6751 21.4421 23.738 21.4387C24.8504 21.4031 25.7219 21.0688 26.3269 20.4429C26.9207 19.8295 27.2009 18.9681 27.1627 17.8827L27.1182 16.6239C28.928 16.5699 30.7403 16.5182 32.5329 16.4689L32.7168 22.4517C31.9613 22.8502 30.9379 23.2396 29.6601 23.614C28.017 24.0953 26.196 24.3698 24.2454 24.4318C23.9825 24.4398 23.7208 24.4444 23.4664 24.4444V24.4398Z" fill="url(#paint13_linear_1788_21467)"/>
<path d="M36.5165 21.0702C36.64 21.0667 38.177 21.0288 38.177 21.0288L37.7103 4.96627C37.7103 4.96627 36.1635 5.00532 36.0338 5.00876L35.9561 2.42796C40.6547 2.30851 45.399 2.20514 50.0804 2.12015C50.2088 2.11785 50.336 2.1167 50.4619 2.1167C52.8594 2.1167 54.7038 2.54396 55.942 3.38815C57.1469 4.21052 57.7494 5.59797 57.7815 7.62862C57.8 8.76914 57.5679 9.76035 57.0926 10.5735C56.6531 11.3247 56.0408 11.8346 55.221 12.1333L54.2914 12.4709L54.5667 14.6176L55.5556 14.7428C57.0556 14.9323 57.6765 15.618 57.7 17.1088L57.7568 20.6475C57.7568 20.6475 59.2271 20.6268 59.3185 20.6257L59.358 23.2077C56.7148 23.2444 54.0556 23.2858 51.4211 23.3328L51.294 17.3948C51.2717 16.3795 51.073 15.5985 50.6829 15.007C50.2446 14.3431 49.5545 13.8825 48.6879 13.6746C48.099 13.5345 47.362 13.4656 46.4323 13.4656C46.2978 13.4656 46.1595 13.4667 46.0151 13.4702L44.7262 13.4966L44.9003 20.8761C44.9003 20.8761 46.7916 20.8382 47.0928 20.8313L47.1509 23.4121C43.6423 23.4822 40.1029 23.5626 36.5943 23.651L36.5165 21.0702ZM47.6212 4.74805C47.0175 4.75953 46.4138 4.77217 45.8101 4.7848L44.5213 4.81122L44.6954 12.1907C44.6954 12.1907 47.1867 12.1402 47.7879 12.1287C48.7953 12.1092 49.5915 11.8105 50.1532 11.2431C50.7001 10.6895 50.9668 9.90966 50.9458 8.92535L50.9224 7.83192C50.9014 6.84761 50.6002 6.07808 50.0286 5.544C49.4607 5.01566 48.6854 4.74805 47.7237 4.74805C47.6891 4.74805 47.6558 4.74805 47.6212 4.74805Z" fill="url(#paint14_linear_1788_21467)"/>
<path d="M67.7777 20.5252C67.9011 20.524 69.4394 20.5091 69.4394 20.5091L69.3888 15.8241L69.2085 15.545C66.9765 12.0856 64.6926 8.57212 62.4222 5.10233L62.0395 4.51772L61.2519 4.52805L61.2124 1.9461C64.679 1.90245 68.1727 1.86685 71.6307 1.84158L71.6517 4.42354L69.8789 4.43732L70.5801 6.06827C71.2529 7.63261 71.9233 9.19579 72.5911 10.7601L72.9171 11.5216L75.0145 11.509L75.3294 10.7429C75.975 9.17053 76.6219 7.59815 77.2713 6.02578L77.949 4.38563L76.1763 4.39482L76.159 1.81287C78.7342 1.79909 81.3243 1.79104 83.8909 1.7876L83.8933 4.36955H83.0934L82.723 4.97484C80.5823 8.46416 78.4243 12.0098 76.3071 15.5106L76.1392 15.7874L76.1639 20.4631C76.1639 20.4631 77.7009 20.4562 77.8256 20.4551L77.8367 23.037C74.5034 23.052 71.1418 23.075 67.8098 23.1071L67.7789 20.5252H67.7777Z" fill="url(#paint15_linear_1788_21467)"/>
<path d="M99.1037 23.0581C95.2642 23.034 91.3878 23.0202 87.5496 23.019V20.4371H89.2101L89.2224 4.36876H87.5459V1.78564C92.0211 1.78794 96.542 1.80517 101.001 1.83733C103.576 1.85571 105.527 2.35304 106.799 3.31323C107.994 4.216 108.561 5.69878 108.532 7.84429C108.502 9.98864 107.898 11.4599 106.686 12.3409C105.429 13.2528 103.533 13.7146 101.051 13.7146H100.902C99.6901 13.7054 98.479 13.6973 97.2667 13.6916L95.9766 13.6847L95.9346 20.4589C95.9346 20.4589 98.4913 20.4727 99.1246 20.4773L99.1037 23.0592V23.0581ZM95.9889 11.7712L98.4456 11.785C100.447 11.785 101.651 10.6181 101.667 8.66206L101.675 7.56864C101.683 6.58317 101.405 5.80675 100.849 5.25889C100.276 4.69609 99.4752 4.40895 98.4654 4.40321L96.0358 4.38943L95.9901 11.7701L95.9889 11.7712Z" fill="url(#paint16_linear_1788_21467)"/>
<path d="M128.692 23.4684C124.919 23.388 121.111 23.318 117.339 23.2594L117.383 20.6774C117.729 20.6832 119.709 20.7153 119.709 20.7153L120.008 4.6493L118.719 4.62863C118.004 4.61715 117.288 4.60566 116.572 4.59532L115.283 4.5758L115.242 6.94527C114.183 6.93034 113.12 6.91541 112.061 6.90162L112.13 1.9502C119.658 2.04667 127.274 2.18679 134.805 2.36826L134.663 7.3174C133.6 7.29213 132.537 7.26686 131.483 7.24274L131.542 4.87327L130.253 4.84455C129.538 4.82847 126.817 4.7722 126.817 4.7722L126.432 20.8371C126.432 20.8371 128.413 20.8784 128.757 20.8853L128.692 23.4661V23.4684Z" fill="url(#paint17_linear_1788_21467)"/>
<path d="M149.796 24.4431C149.558 24.4431 149.312 24.4396 149.067 24.4316C145.33 24.3133 142.582 23.3853 140.668 21.5958C138.793 19.842 137.899 16.9717 138.013 13.0666C138.126 9.15579 139.194 6.33953 141.188 4.69824C143.079 3.14079 145.754 2.35059 149.142 2.35059C149.381 2.35059 149.627 2.35403 149.874 2.36207C153.612 2.48037 156.47 3.44975 158.369 5.2415C160.238 7.00684 161.098 9.88282 160.927 13.7914C160.755 17.6942 159.654 20.5012 157.654 22.1333C155.748 23.6873 153.179 24.4431 149.796 24.4431ZM149.578 5.36325C148.546 5.36325 147.711 5.6435 147.096 6.19595C146.457 6.77023 146.112 7.61327 146.074 8.70211L145.751 17.871C145.711 18.9851 145.998 19.8557 146.599 20.4587C147.201 21.0652 148.069 21.3914 149.176 21.4258C149.239 21.4281 149.301 21.4293 149.362 21.4293C150.389 21.4293 151.221 21.149 151.833 20.5966C152.47 20.0223 152.813 19.1804 152.854 18.095L153.201 8.92722C153.243 7.83954 152.962 6.97697 152.364 6.3625C151.755 5.73653 150.881 5.40115 149.763 5.36669C149.7 5.36439 149.637 5.36325 149.576 5.36325H149.578Z" fill="url(#paint18_linear_1788_21467)"/>
<path d="M2.4205 47.2918C2.53654 47.2872 4.05626 47.2206 4.05626 47.2206L3.25875 31.1695C3.25875 31.1695 1.72792 31.235 1.60694 31.2407L1.47607 28.6611C5.25747 28.498 9.07466 28.3441 12.8585 28.2017L12.9684 30.7813C12.3845 30.8031 9.92896 30.8962 9.92896 30.8962L10.6401 46.9519L11.9289 46.9025C12.9104 46.8646 13.8918 46.8278 14.8733 46.7922L16.1622 46.7451L16.0436 43.953C17.3609 43.9047 18.6806 43.8588 19.9892 43.814L20.1966 49.1869C14.335 49.3868 8.41171 49.6165 2.55136 49.8692L2.4205 47.2907V47.2918Z" fill="url(#paint19_linear_1788_21467)"/>
<path d="M34.2938 49.177C30.9124 49.177 28.3507 48.4086 26.4643 46.8293C24.5014 45.1857 23.4311 42.3717 23.2817 38.4644C23.1323 34.5512 23.9952 31.6775 25.847 29.9225C27.7223 28.1446 30.5383 27.1936 34.2148 27.0959C34.416 27.0902 34.6184 27.0879 34.816 27.0879C38.2023 27.0879 40.8702 27.8907 42.743 29.4734C44.6997 31.1274 45.7379 33.9505 45.8281 37.8648C45.9182 41.7745 45.0219 44.6413 43.1639 46.386C41.2726 48.1616 38.5665 49.0724 34.8925 49.1701C34.6913 49.1758 34.4901 49.1781 34.2938 49.1781V49.177ZM34.4617 30.0994C34.411 30.0994 34.3592 30.0994 34.3073 30.1017C33.195 30.1316 32.3247 30.4647 31.7185 31.0906C31.1284 31.6994 30.8469 32.5596 30.8815 33.645L31.1753 42.8139C31.2111 43.9246 31.5494 44.7745 32.1802 45.3419C32.7876 45.8886 33.6172 46.1666 34.6444 46.1666C34.695 46.1666 34.7468 46.1666 34.7999 46.1643C35.9061 46.1344 36.7727 45.8025 37.3776 45.1765C37.9653 44.5678 38.2455 43.7098 38.2147 42.6279L37.9455 33.4578C37.9134 32.3736 37.5801 31.5305 36.953 30.9528C36.3394 30.3877 35.5011 30.1006 34.4617 30.1006V30.0994Z" fill="url(#paint20_linear_1788_21467)"/>
<path d="M54.9438 45.7313C55.2784 45.7256 57.2351 45.6945 57.2351 45.6945L56.9438 29.6285L55.6537 29.6492C54.9488 29.6607 54.2438 29.6722 53.5389 29.6836L52.2501 29.7055L52.2957 32.0749C51.2686 32.0933 50.2328 32.1117 49.1983 32.1312L49.0859 27.1809C56.4919 27.0397 63.9856 26.9398 71.3978 26.8823L71.4385 31.8338C70.404 31.8418 69.3682 31.851 68.341 31.8602L68.3139 29.4907L67.0238 29.5033C66.3189 29.5102 65.6139 29.5171 64.9078 29.5252L63.6189 29.5389L63.8239 45.6061C63.8239 45.6061 65.7818 45.5843 66.1152 45.5808L66.1448 48.1628C62.4387 48.2018 58.7005 48.2512 54.9957 48.3121L54.9451 45.7301L54.9438 45.7313Z" fill="url(#paint21_linear_1788_21467)"/>
<path d="M80.4836 45.4847C80.8182 45.4847 82.7749 45.4789 82.7749 45.4789L82.7268 29.4106L81.4367 29.414C80.7318 29.4163 80.0269 29.4186 79.3219 29.4209L78.0318 29.4255L78.0417 31.795C77.0146 31.7996 75.9788 31.8053 74.9443 31.8111L74.9072 26.8596C78.7936 26.8367 82.7194 26.8252 86.5971 26.8252C90.1204 26.8252 93.6883 26.8344 97.2203 26.8539L97.1857 31.8053C96.1512 31.7996 95.1154 31.795 94.0883 31.7916L94.0969 29.4221L92.8068 29.4175C92.1019 29.4152 91.397 29.4129 90.692 29.4117L89.4019 29.4094L89.3637 45.4778C89.3637 45.4778 91.3217 45.4824 91.655 45.4824L91.6451 48.0643C89.9637 48.0597 88.2723 48.0574 86.5983 48.0574C84.5737 48.0574 82.5268 48.0609 80.4948 48.0666L80.4836 45.4847Z" fill="url(#paint22_linear_1788_21467)"/>
<path d="M120.248 48.3495C113.782 48.2381 107.24 48.1577 100.764 48.1106L100.783 45.5287C100.899 45.5287 102.42 45.5413 102.42 45.5413L102.559 29.473C102.559 29.473 101.027 29.4615 100.906 29.4604L100.925 26.8784C107.489 26.9267 114.125 27.0071 120.689 27.1208L120.548 33.8938C118.946 33.8662 117.337 33.8398 115.742 33.8169L115.811 29.6258L114.523 29.6074C113.189 29.5879 111.856 29.5706 110.524 29.5546L109.234 29.5385L109.133 36.7365C109.133 36.7365 111.493 36.7652 112.029 36.7721L112.013 37.8357C111.478 37.8288 109.119 37.8 109.119 37.8L109.009 45.6056L110.299 45.6217C111.62 45.6378 112.94 45.655 114.261 45.6734L115.551 45.6918L115.63 40.8931C117.226 40.9172 118.825 40.9425 120.405 40.9701L120.252 48.3495H120.248Z" fill="url(#paint23_linear_1788_21467)"/>
<path d="M146.457 48.9789C143.867 48.8997 141.26 48.8239 138.676 48.7549L138.855 42.8181C138.886 41.8062 138.729 41.0183 138.376 40.4118C137.977 39.7273 137.318 39.2357 136.47 38.9876C135.813 38.797 134.954 38.6913 133.84 38.6637L132.551 38.6327L132.345 46.011C132.345 46.011 134.216 46.0558 134.506 46.0639L134.43 48.6447C130.99 48.5597 127.514 48.4839 124.066 48.4173L124.122 45.8365L125.759 45.8675L126.119 29.8026C126.119 29.8026 124.589 29.7727 124.468 29.7704L124.523 27.1885C129.144 27.2781 133.814 27.3837 138.424 27.5055C140.964 27.5721 142.877 28.0832 144.11 29.025C145.255 29.8991 145.776 31.3129 145.703 33.347C145.662 34.4899 145.383 35.4719 144.872 36.2644C144.403 36.9937 143.776 37.475 142.957 37.7357L142.019 38.0343L142.18 40.1844L143.16 40.3555C144.617 40.6094 145.189 41.3215 145.136 42.8135L145.012 46.351C145.012 46.351 146.467 46.3958 146.55 46.3981L146.456 48.9789H146.457ZM132.588 37.3279C132.588 37.3279 135.062 37.3877 135.654 37.4026C135.697 37.4026 135.74 37.4038 135.782 37.4038C136.725 37.4038 137.487 37.1384 138.048 36.6158C138.614 36.0875 138.915 35.3226 138.945 34.3417L138.978 33.2483C139.008 32.2674 138.751 31.4875 138.217 30.9305C137.661 30.3528 136.871 30.0484 135.867 30.0231C135.272 30.0082 132.793 29.9485 132.793 29.9485L132.587 37.3268L132.588 37.3279Z" fill="url(#paint24_linear_1788_21467)"/>
<path d="M164.652 49.622C161.386 49.4911 158.088 49.3671 154.814 49.2522L154.916 46.6725C155.032 46.6771 156.552 46.73 156.552 46.73L156.742 42.0519L156.58 41.767C154.551 38.1973 152.483 34.5874 150.435 31.0372L150.084 30.4296L149.31 30.4055L149.403 27.8247C152.798 27.9327 156.227 28.051 159.628 28.1773L159.516 30.757L157.772 30.6915L158.377 32.3466C158.958 33.9385 159.538 35.5304 160.116 37.1223L160.4 37.9021L161.615 37.9492L162.5 37.9825L162.852 37.2256C163.568 35.6831 164.286 34.1406 165.006 32.5993L165.754 30.9959L164.01 30.927L164.125 28.3473C166.644 28.4461 169.182 28.5517 171.702 28.6597L171.571 31.2394L170.786 31.2061L170.386 31.7999C168.096 35.1961 165.789 38.6418 163.527 42.0416L163.349 42.308L163.134 46.9758L164.77 47.0412L164.649 49.6209L164.652 49.622Z" fill="url(#paint25_linear_1788_21467)"/>
<path d="M22.9957 23.935C19.5452 23.935 16.8132 23.1574 14.8749 21.6229C12.8182 19.9943 11.6874 17.1929 11.5158 13.297C11.3479 9.56306 12.2046 6.72382 14.0626 4.85856C15.9194 2.99331 18.8946 1.98373 22.9031 1.85509C23.1834 1.8459 23.4661 1.84131 23.7414 1.84131C25.4278 1.84131 27.0314 2.009 28.5117 2.34208C29.8376 2.63955 30.898 2.96919 31.6745 3.32524L31.8498 9.03817C30.0338 9.08755 28.2104 9.14039 26.4031 9.19437L26.3685 8.20776C26.3302 7.12008 25.9858 6.27704 25.3463 5.70161C24.7315 5.14915 23.897 4.87005 22.8661 4.87005C22.8044 4.87005 22.7427 4.87005 22.6785 4.8735C21.56 4.9091 20.6847 5.24448 20.0773 5.87044C19.481 6.48377 19.1995 7.34634 19.2415 8.43517L19.5896 17.603C19.6304 18.6895 19.9748 19.5302 20.6106 20.1045C21.2229 20.657 22.0538 20.9372 23.0809 20.9372C23.1426 20.9372 23.2044 20.9372 23.2673 20.9338C24.3797 20.8982 25.2512 20.5639 25.8562 19.938C26.45 19.3246 26.7302 18.4632 26.6919 17.3778L26.6475 16.119C28.4573 16.065 30.2696 16.0134 32.0622 15.964L32.2461 21.9468C31.4906 22.3453 30.4672 22.7347 29.1894 23.1091C27.5462 23.5904 25.7253 23.8649 23.7747 23.9269C23.5118 23.935 23.2501 23.9396 22.9957 23.9396V23.935Z" fill="#B83400"/>
<path d="M36.0449 20.5638C36.1683 20.5604 37.7053 20.5225 37.7053 20.5225L37.2386 4.45992C37.2386 4.45992 35.6918 4.49897 35.5622 4.50242L35.4844 1.92161C40.183 1.80216 44.9274 1.69879 49.6087 1.61379C49.7371 1.6115 49.8643 1.61035 49.9902 1.61035C52.3877 1.61035 54.2321 2.03762 55.4703 2.8818C56.6752 3.70417 57.2777 5.09163 57.3098 7.12227C57.3283 8.26279 57.0962 9.254 56.6209 10.0672C56.1814 10.8183 55.5691 11.3283 54.7493 11.6269L53.8197 11.9646L54.095 14.1112L55.0839 14.2364C56.5839 14.4259 57.2048 15.1116 57.2283 16.6025L57.2851 20.1412C57.2851 20.1412 58.7554 20.1205 58.8468 20.1193L58.8863 22.7013C56.2431 22.7381 53.5839 22.7794 50.9494 22.8265L50.8223 16.8885C50.8001 15.8731 50.6013 15.0921 50.2112 14.5006C49.7729 13.8367 49.0828 13.3762 48.2162 13.1683C47.6273 13.0282 46.8903 12.9592 45.9607 12.9592C45.8261 12.9592 45.6878 12.9604 45.5434 12.9638L44.2545 12.9902L44.4286 20.3697C44.4286 20.3697 46.3199 20.3318 46.6211 20.3249L46.6792 22.9057C43.1706 22.9758 39.6312 23.0562 36.1226 23.1446L36.0449 20.5638ZM47.1495 4.24169C46.5458 4.25318 45.9422 4.26581 45.3385 4.27845L44.0496 4.30486L44.2237 11.6843C44.2237 11.6843 46.715 11.6338 47.3162 11.6223C48.3236 11.6028 49.1199 11.3042 49.6816 10.7368C50.2285 10.1832 50.4951 9.40331 50.4741 8.41899L50.4507 7.32557C50.4297 6.34126 50.1285 5.57172 49.5569 5.03764C48.989 4.50931 48.2137 4.24169 47.252 4.24169C47.2174 4.24169 47.1841 4.24169 47.1495 4.24169Z" fill="#B83400"/>
<path d="M67.306 20.0213C67.4295 20.0201 68.9677 20.0052 68.9677 20.0052L68.9171 15.3202L68.7368 15.0411C66.5048 11.5817 64.2209 8.06822 61.9506 4.59843L61.5679 4.01381L60.7802 4.02415L60.7407 1.44219C64.2073 1.39855 67.701 1.36295 71.159 1.33768L71.18 3.91963L69.4072 3.93341L70.1084 5.56437C70.7812 7.1287 71.4516 8.69188 72.1195 10.2562L72.4454 11.0177L74.5429 11.0051L74.8577 10.239C75.5033 8.66662 76.1502 7.09424 76.7996 5.52187L77.4774 3.88173L75.7046 3.89092L75.6873 1.30896C78.2625 1.29518 80.8526 1.28714 83.4192 1.28369L83.4217 3.86565H82.6217L82.2513 4.47094C80.1106 7.96025 77.9527 11.5059 75.8354 15.0067L75.6675 15.2835L75.6922 19.9592C75.6922 19.9592 77.2292 19.9523 77.3539 19.9512L77.365 22.5332C74.0318 22.5481 70.6701 22.5711 67.3381 22.6032L67.3072 20.0213H67.306Z" fill="#B83400"/>
<path d="M98.632 22.5512C94.7926 22.5271 90.9161 22.5133 87.0779 22.5122V19.9302H88.7384L88.7507 3.86191H87.0742V1.27881C91.5494 1.28111 96.0703 1.29834 100.529 1.3305C103.105 1.34887 105.055 1.84619 106.327 2.80639C107.522 3.70915 108.09 5.19194 108.06 7.33745C108.031 9.4818 107.427 10.9531 106.214 11.834C104.958 12.746 103.061 13.2077 100.579 13.2077H100.431C99.2184 13.1985 98.0073 13.1905 96.795 13.1847L95.5049 13.1779L95.4629 19.952C95.4629 19.952 98.0196 19.9658 98.6529 19.9704L98.632 22.5524V22.5512ZM95.5172 11.2644L97.974 11.2781C99.9751 11.2781 101.179 10.1112 101.195 8.15522L101.204 7.06179C101.211 6.07633 100.933 5.29991 100.378 4.75204C99.8048 4.18925 99.0036 3.90211 97.9937 3.89637L95.5641 3.88259L95.5185 11.2632L95.5172 11.2644Z" fill="#B83400"/>
<path d="M128.22 22.9616C124.447 22.8812 120.64 22.8111 116.867 22.7525L116.911 20.1706C117.257 20.1763 119.237 20.2085 119.237 20.2085L119.536 4.14247L118.247 4.1218C117.532 4.11031 116.816 4.09883 116.1 4.08849L114.811 4.06896L114.771 6.43843C113.712 6.4235 112.649 6.40857 111.589 6.39479L111.658 1.44336C119.187 1.53984 126.803 1.67996 134.333 1.86144L134.191 6.81057C133.128 6.7853 132.065 6.76003 131.011 6.73591L131.07 4.36644L129.782 4.33773C129.067 4.32165 126.346 4.26537 126.346 4.26537L125.961 20.3302C125.961 20.3302 127.941 20.3716 128.285 20.3785L128.22 22.9593V22.9616Z" fill="#B83400"/>
<path d="M149.326 23.9387C149.088 23.9387 148.842 23.9352 148.596 23.9272C144.859 23.8089 142.111 22.8809 140.198 21.0914C138.323 19.3376 137.429 16.4673 137.542 12.5622C137.656 8.65139 138.724 5.83513 140.718 4.19384C142.609 2.6364 145.284 1.84619 148.672 1.84619C148.911 1.84619 149.157 1.84963 149.404 1.85767C153.142 1.97598 156 2.94536 157.899 4.73711C159.768 6.50244 160.628 9.37843 160.457 13.287C160.285 17.1898 159.184 19.9969 157.184 21.629C155.278 23.1829 152.709 23.9387 149.326 23.9387ZM149.107 4.85886C148.075 4.85886 147.241 5.1391 146.626 5.69156C145.987 6.26584 145.642 7.10888 145.604 8.19771L145.28 17.3666C145.241 18.4807 145.527 19.3514 146.129 19.9543C146.731 20.5608 147.599 20.887 148.706 20.9214C148.769 20.9237 148.831 20.9249 148.891 20.9249C149.919 20.9249 150.751 20.6446 151.363 20.0922C152 19.5179 152.343 18.676 152.384 17.5906L152.731 8.42283C152.773 7.33515 152.491 6.47258 151.894 5.8581C151.285 5.23214 150.411 4.89676 149.293 4.8623C149.23 4.86001 149.167 4.85886 149.106 4.85886H149.107Z" fill="#B83400"/>
<path d="M1.94882 46.7865C2.06486 46.7819 3.58458 46.7152 3.58458 46.7152L2.78707 30.6642C2.78707 30.6642 1.25624 30.7296 1.13526 30.7354L1.00439 28.1557C4.78579 27.9926 8.60298 27.8387 12.3868 27.6963L12.4967 30.2759C11.9128 30.2978 9.45728 30.3908 9.45728 30.3908L10.1684 46.4465L11.4572 46.3971C12.4387 46.3592 13.4202 46.3224 14.4016 46.2868L15.6905 46.2397L15.572 43.4476C16.8892 43.3994 18.2089 43.3534 19.5175 43.3086L19.7249 48.6816C13.8634 48.8814 7.94003 49.1111 2.07968 49.3638L1.94882 46.7853V46.7865Z" fill="#B83400"/>
<path d="M33.8221 48.6701C30.4407 48.6701 27.879 47.9017 25.9926 46.3225C24.0297 44.6789 22.9594 41.8649 22.81 37.9575C22.6606 34.0444 23.5236 31.1707 25.3754 29.4157C27.2506 27.6377 30.0666 26.6867 33.7431 26.5891C33.9443 26.5834 34.1468 26.5811 34.3443 26.5811C37.7306 26.5811 40.3985 27.3839 42.2713 28.9666C44.228 30.6205 45.2663 33.4437 45.3564 37.358C45.4465 41.2677 44.5502 44.1345 42.6923 45.8791C40.8009 47.6548 38.0948 48.5656 34.4208 48.6632C34.2196 48.669 34.0184 48.6713 33.8221 48.6713V48.6701ZM33.99 29.5926C33.9394 29.5926 33.8875 29.5926 33.8357 29.5949C32.7234 29.6247 31.853 29.9578 31.2468 30.5838C30.6567 31.1925 30.3753 32.0528 30.4098 33.1382L30.7036 42.3071C30.7394 43.4178 31.0777 44.2677 31.7086 44.8351C32.3159 45.3818 33.1456 45.6598 34.1727 45.6598C34.2233 45.6598 34.2752 45.6598 34.3283 45.6575C35.4344 45.6276 36.301 45.2957 36.906 44.6697C37.4936 44.061 37.7738 43.203 37.743 42.121L37.4739 32.951C37.4418 31.8667 37.1084 31.0237 36.4813 30.446C35.8677 29.8809 35.0295 29.5937 33.99 29.5937V29.5926Z" fill="#B83400"/>
<path d="M54.4721 45.2249C54.8067 45.2192 56.7635 45.1882 56.7635 45.1882L56.4721 29.1222L55.182 29.1428C54.4771 29.1543 53.7722 29.1658 53.0672 29.1773L51.7784 29.1991L51.8241 31.5686C50.7969 31.587 49.7611 31.6054 48.7266 31.6249L48.6143 26.6746C56.0203 26.5333 63.5139 26.4334 70.9261 26.376L70.9668 31.3274C69.9323 31.3354 68.8965 31.3446 67.8694 31.3538L67.8422 28.9843L66.5521 28.997C65.8472 29.0039 65.1423 29.0108 64.4361 29.0188L63.1473 29.0326L63.3522 45.0998C63.3522 45.0998 65.3102 45.0779 65.6435 45.0745L65.6731 47.6565C61.967 47.6955 58.2288 47.7449 54.524 47.8058L54.4734 45.2238L54.4721 45.2249Z" fill="#B83400"/>
<path d="M80.0134 44.9793C80.348 44.9793 82.3047 44.9735 82.3047 44.9735L82.2566 28.9052L80.9665 28.9087C80.2616 28.911 79.5566 28.9133 78.8517 28.9156L77.5616 28.9202L77.5715 31.2896C76.5444 31.2942 75.5086 31.3 74.474 31.3057L74.437 26.3543C78.3233 26.3313 82.2492 26.3198 86.1269 26.3198C89.6502 26.3198 93.2181 26.329 96.7501 26.3485L96.7155 31.3C95.681 31.2942 94.6452 31.2896 93.6181 31.2862L93.6267 28.9167L92.3366 28.9121C91.6317 28.9098 90.9268 28.9075 90.2218 28.9064L88.9317 28.9041L88.8935 44.9724C88.8935 44.9724 90.8514 44.977 91.1848 44.977L91.1749 47.5589C89.4935 47.5543 87.8021 47.5521 86.1281 47.5521C84.1035 47.5521 82.0566 47.5555 80.0245 47.5612L80.0134 44.9793Z" fill="#B83400"/>
<path d="M119.776 47.8427C113.309 47.7313 106.767 47.6509 100.291 47.6038L100.311 45.0219C100.427 45.0219 101.948 45.0345 101.948 45.0345L102.086 28.9662C102.086 28.9662 100.554 28.9547 100.433 28.9535L100.453 26.3716C107.017 26.4198 113.652 26.5002 120.216 26.6139L120.076 33.387C118.473 33.3594 116.865 33.333 115.27 33.31L115.339 29.1189L114.05 29.1006C112.717 29.081 111.383 29.0638 110.051 29.0477L108.761 29.0316L108.66 36.2297C108.66 36.2297 111.02 36.2584 111.556 36.2653L111.54 37.3288C111.006 37.3219 108.646 37.2932 108.646 37.2932L108.537 45.0988L109.827 45.1149C111.148 45.131 112.467 45.1482 113.788 45.1666L115.078 45.185L115.157 40.3863C116.754 40.4104 118.352 40.4357 119.933 40.4632L119.779 47.8427H119.776Z" fill="#B83400"/>
<path d="M145.987 48.4721C143.397 48.3928 140.79 48.317 138.206 48.2481L138.385 42.3112C138.416 41.2993 138.259 40.5114 137.906 39.905C137.507 39.2204 136.848 38.7289 136 38.4808C135.343 38.2901 134.484 38.1844 133.37 38.1569L132.081 38.1259L131.875 45.5042C131.875 45.5042 133.745 45.549 134.035 45.557L133.96 48.1378C130.519 48.0528 127.044 47.977 123.596 47.9104L123.652 45.3296L125.289 45.3606L125.649 29.2958C125.649 29.2958 124.118 29.2659 123.997 29.2636L124.053 26.6816C128.674 26.7712 133.344 26.8769 137.954 26.9986C140.493 27.0653 142.407 27.5764 143.64 28.5182C144.785 29.3922 145.306 30.8061 145.233 32.8402C145.192 33.983 144.913 34.965 144.402 35.7575C143.933 36.4869 143.306 36.9681 142.487 37.2288L141.549 37.5275L141.709 39.6776L142.69 39.8487C144.146 40.1025 144.719 40.8146 144.666 42.3066L144.541 45.8442C144.541 45.8442 145.997 45.889 146.08 45.8913L145.986 48.4721H145.987ZM132.118 36.8211C132.118 36.8211 134.592 36.8808 135.184 36.8958C135.227 36.8958 135.27 36.8969 135.312 36.8969C136.255 36.8969 137.017 36.6316 137.577 36.109C138.144 35.5807 138.445 34.8157 138.475 33.8348L138.508 32.7414C138.538 31.7606 138.281 30.9807 137.746 30.4236C137.191 29.8459 136.401 29.5415 135.397 29.5163C134.802 29.5013 132.323 29.4416 132.323 29.4416L132.117 36.8199L132.118 36.8211Z" fill="#B83400"/>
<path d="M164.185 49.1186C160.92 48.9877 157.621 48.8636 154.347 48.7488L154.449 46.1691C154.565 46.1737 156.085 46.2265 156.085 46.2265L156.275 41.5485L156.113 41.2636C154.084 37.6939 152.016 34.084 149.968 30.5338L149.617 29.9262L148.843 29.9021L148.936 27.3213C152.331 27.4293 155.76 27.5476 159.162 27.6739L159.049 30.2536L157.305 30.1881L157.91 31.8432C158.491 33.4351 159.071 35.027 159.649 36.6189L159.933 37.3987L161.148 37.4458L162.033 37.4791L162.385 36.7222C163.101 35.1797 163.819 33.6372 164.539 32.0958L165.287 30.4925L163.543 30.4235L163.658 27.8439C166.177 27.9427 168.716 28.0483 171.235 28.1563L171.104 30.7359L170.319 30.7026L169.919 31.2964C167.629 34.6927 165.322 38.1384 163.06 41.5381L162.882 41.8046L162.668 46.4723L164.303 46.5378L164.182 49.1175L164.185 49.1186Z" fill="#B83400"/>
<path d="M23.4783 23.834C20.1068 23.834 17.5599 23.115 15.6908 21.6357C13.7477 20.0977 12.6785 17.4124 12.5119 13.6555C12.3502 10.0536 13.1612 7.33037 14.9217 5.56159C16.6821 3.79396 19.5352 2.83492 23.4017 2.71087C23.6758 2.70169 23.9524 2.69824 24.2215 2.69824C25.8671 2.69824 27.4313 2.86248 28.8708 3.18523C30.1559 3.47352 31.0423 3.76296 31.6497 4.01334L31.8015 8.94984C30.3275 8.99004 28.8498 9.03254 27.3819 9.07618L27.3634 8.56737C27.3202 7.35105 26.9239 6.3966 26.1832 5.73273C25.4684 5.09183 24.5141 4.7668 23.345 4.7668C23.2771 4.7668 23.2092 4.7668 23.14 4.77024C21.8771 4.81044 20.8783 5.19865 20.1747 5.92454C19.4858 6.6332 19.1599 7.61062 19.2055 8.82809L19.5537 17.9959C19.5994 19.2099 19.9957 20.1621 20.7314 20.8236C21.4425 21.4657 22.3944 21.7907 23.5598 21.7907C23.6264 21.7907 23.6943 21.7907 23.7635 21.7873C25.0215 21.7471 26.0153 21.3589 26.7177 20.6341C27.4029 19.9255 27.7288 18.9515 27.6856 17.7375L27.6584 16.9576C29.1226 16.9139 30.588 16.8726 32.0423 16.8324L32.2028 22.0422C31.5114 22.3765 30.6127 22.7061 29.5152 23.0277C27.9165 23.4963 26.1412 23.7639 24.2375 23.8237C23.9807 23.8317 23.724 23.8363 23.4758 23.8363L23.4783 23.834Z" fill="url(#paint26_linear_1788_21467)"/>
<path d="M37.06 21.4086L38.7204 21.3673L38.2266 4.34681L36.5501 4.38931L36.502 2.7664C41.0302 2.6527 45.598 2.55392 50.1066 2.47122C50.2313 2.46893 50.356 2.46777 50.4782 2.46777C52.7645 2.46777 54.5052 2.86403 55.6534 3.64734C56.7188 4.37438 57.2521 5.63779 57.2817 7.50879C57.299 8.56661 57.0879 9.47742 56.6546 10.2171C56.2706 10.8741 55.7608 11.3002 55.0472 11.5598L53.746 12.033L54.1151 14.9158L55.499 15.0916C56.583 15.2282 57.1755 15.5717 57.1978 16.989L57.262 21.0066L58.8224 20.9848L58.8471 22.6077C56.5459 22.6399 54.2336 22.6766 51.9374 22.7168L51.8213 17.2577C51.7979 16.1551 51.5732 15.2949 51.1337 14.6287C50.6238 13.8569 49.8263 13.3228 48.8276 13.0827C48.1967 12.9323 47.4165 12.8588 46.4437 12.8588C46.3054 12.8588 46.1635 12.8599 46.0153 12.8634L44.2116 12.9001L44.4079 21.2375C44.4079 21.2375 46.4709 21.195 46.6005 21.1927L46.6363 22.8156C43.4672 22.8799 40.2747 22.9523 37.1069 23.0315L37.0587 21.4086H37.06ZM47.7387 4.14007C47.7017 4.14007 47.6634 4.14007 47.6252 4.14007C47.0215 4.15156 46.4178 4.16419 45.8141 4.17568L44.0104 4.21243L44.2067 12.5498C44.2067 12.5498 47.2128 12.4889 47.814 12.4775C49.251 12.4499 50.0942 11.8963 50.5473 11.4369C51.1868 10.7891 51.5004 9.89664 51.4757 8.78484L51.4522 7.69141C51.4288 6.57961 51.0769 5.69867 50.4078 5.075C49.9473 4.64659 49.1115 4.13892 47.7387 4.13892V4.14007Z" fill="url(#paint27_linear_1788_21467)"/>
<path d="M68.3082 20.8724L69.9686 20.8575L69.9119 15.5638L69.66 15.1721C67.4267 11.7115 65.1441 8.19811 62.8725 4.72717L62.3367 3.90826L61.7688 3.91515L61.7441 2.29224C64.8675 2.25318 68.0119 2.22217 71.1291 2.19805L71.1414 3.82096L69.1292 3.8359L70.1106 6.11923C70.7822 7.68242 71.4526 9.24675 72.1217 10.8099L72.5772 11.8758L75.3784 11.8586L75.8191 10.7858C76.4648 9.21344 77.1117 7.64106 77.7611 6.06983L78.7092 3.77387L76.6969 3.78536L76.6858 2.16245C78.9178 2.15096 81.1585 2.14407 83.3844 2.14062V3.76469H82.8029L82.2844 4.61002C80.1437 8.10049 77.9845 11.6461 75.8673 15.148L75.6327 15.5351L75.6611 20.8173L77.3216 20.8093L77.329 22.4322C74.3352 22.446 71.3217 22.4678 68.3279 22.4954L68.3094 20.8724H68.3082Z" fill="url(#paint28_linear_1788_21467)"/>
<path d="M98.5941 22.4494C95.0929 22.4288 91.5659 22.4161 88.0672 22.4138V20.7898H89.7276L89.7412 3.76242H88.0635V2.13721C92.3683 2.14065 96.7139 2.15788 100.999 2.18889C103.454 2.20612 105.298 2.66669 106.477 3.55797C107.542 4.36311 108.047 5.72071 108.02 7.71001C107.993 9.69931 107.454 11.0489 106.372 11.8345C105.209 12.6787 103.419 13.1071 101.053 13.1071H100.909C99.6965 13.0979 98.4842 13.0899 97.2719 13.0841L95.467 13.0749L95.4189 20.807C95.4189 20.807 98.146 20.8219 98.6077 20.8242L98.5941 22.4472V22.4494ZM95.4719 12.1216L98.446 12.1377C100.732 12.1377 102.163 10.7594 102.182 8.53927L102.19 7.44584C102.199 6.33289 101.874 5.44391 101.224 4.80301C100.761 4.34818 99.9077 3.80606 98.4694 3.79687L95.5238 3.78079L95.4719 12.1205V12.1216Z" fill="url(#paint29_linear_1788_21467)"/>
<path d="M128.195 22.8517C124.761 22.7793 121.301 22.7161 117.868 22.661L117.896 21.0381C118.069 21.0404 120.221 21.076 120.221 21.076L120.537 4.05208L118.732 4.02336C118.016 4.01188 117.301 4.00039 116.585 3.99005L114.78 3.96364L114.739 6.33311C114.022 6.32277 113.304 6.31359 112.586 6.3044L112.642 2.31201C119.828 2.40619 127.091 2.53943 134.281 2.71056L134.167 6.7018C133.449 6.68457 132.73 6.66849 132.014 6.65126L132.074 4.28179L130.27 4.24274C129.555 4.22666 128.839 4.21173 128.123 4.1968L126.318 4.15889L125.91 21.1817C125.91 21.1817 128.061 21.2264 128.234 21.2299L128.193 22.8528L128.195 22.8517Z" fill="url(#paint30_linear_1788_21467)"/>
<path d="M149.808 23.8372C149.576 23.8372 149.337 23.8338 149.096 23.8257C145.496 23.712 142.863 22.83 141.044 21.1312C139.272 19.4739 138.428 16.7219 138.538 12.9524C138.648 9.17935 139.658 6.48024 141.541 4.92968C143.334 3.45149 145.896 2.70264 149.153 2.70264C149.386 2.70264 149.627 2.70608 149.868 2.71412C153.47 2.82783 156.211 3.74897 158.013 5.45113C159.779 7.11769 160.59 9.87537 160.423 13.6449C160.258 17.4122 159.214 20.1033 157.324 21.6458C155.517 23.1205 153.058 23.8372 149.806 23.8372H149.808ZM149.59 4.7574C148.42 4.7574 147.464 5.08245 146.75 5.72449C146.012 6.38721 145.615 7.34166 145.571 8.55913L145.248 17.7281C145.205 18.9731 145.536 19.9586 146.233 20.658C146.933 21.3609 147.921 21.7388 149.17 21.7779C149.239 21.7802 149.306 21.7813 149.373 21.7813C150.538 21.7813 151.49 21.4563 152.202 20.8142C152.938 20.1504 153.334 19.1982 153.38 17.9853L153.727 8.81756C153.774 7.60123 153.447 6.62496 152.758 5.914C152.052 5.18811 151.054 4.7999 149.791 4.7597C149.722 4.7574 149.654 4.75625 149.587 4.75625L149.59 4.7574Z" fill="url(#paint31_linear_1788_21467)"/>
<path d="M2.96591 47.6237L4.60167 47.5525L3.75601 30.5446L2.1042 30.6158L2.02148 28.9941C5.46214 28.8459 8.92997 28.7069 12.3706 28.5771L12.4398 30.1989C12.0274 30.2138 9.40032 30.3149 9.40032 30.3149L10.1534 47.3273L11.9571 47.2584C12.9385 47.2205 13.92 47.1838 14.9014 47.1482L16.7051 47.0816L16.5866 44.2894C17.5594 44.2549 18.5322 44.2205 19.5001 44.1872L19.6705 48.6022C14.1471 48.7918 8.57071 49.0077 3.04862 49.2454L2.96591 47.6237Z" fill="url(#paint32_linear_1788_21467)"/>
<path d="M34.3032 48.5711C31.0551 48.5711 28.6058 47.8429 26.8182 46.3463C24.9639 44.7935 23.9503 42.0932 23.8059 38.3202C23.6615 34.5438 24.475 31.7884 26.2244 30.131C28.0033 28.4449 30.7008 27.5422 34.2402 27.448C34.4365 27.4434 34.634 27.4399 34.8266 27.4399C38.0809 27.4399 40.6314 28.2003 42.4067 29.7014C44.2548 31.2635 45.2363 33.9706 45.3239 37.7494C45.4116 41.5236 44.5647 44.2732 42.8091 45.9225C41.0154 47.6063 38.4241 48.4712 34.8896 48.5642C34.6933 48.5688 34.497 48.5722 34.3056 48.5722L34.3032 48.5711ZM34.4711 29.4936C34.4155 29.4936 34.36 29.4936 34.3019 29.4959C32.7353 29.5372 31.8292 30.1425 31.3452 30.6433C30.6638 31.3462 30.3378 32.319 30.3761 33.5319L30.6699 42.7008C30.7094 43.9401 31.1008 44.9026 31.8329 45.5596C32.539 46.1947 33.4884 46.5186 34.6538 46.5186C34.7093 46.5186 34.7661 46.5186 34.8242 46.5163C36.3846 46.475 37.2871 45.8697 37.7698 45.3689C38.4475 44.6649 38.7734 43.6955 38.7376 42.4872L38.4685 33.3171C38.4327 32.1054 38.0475 31.1521 37.3241 30.4848C36.8327 30.0322 35.9402 29.4947 34.4711 29.4947V29.4936Z" fill="url(#paint33_linear_1788_21467)"/>
<path d="M55.4821 46.0771C55.6439 46.0748 57.7734 46.0415 57.7734 46.0415L57.4648 29.0164L55.6599 29.0451C54.955 29.0566 54.2488 29.0681 53.5439 29.0796L51.7403 29.1106L51.7859 31.48C51.0983 31.4927 50.4082 31.5053 49.7169 31.5179L49.6255 27.5256C56.6895 27.3935 63.8301 27.2982 70.9003 27.2407L70.9324 31.2331C70.2411 31.2389 69.5509 31.2446 68.8633 31.2503L68.8361 28.8809L67.0313 28.8992C66.3263 28.9061 65.6202 28.913 64.9153 28.9211L63.1104 28.9406L63.3264 45.9656C63.3264 45.9656 65.4547 45.9427 65.6177 45.9404L65.6362 47.5633C62.2696 47.6 58.8784 47.6448 55.513 47.6988L55.4809 46.0759L55.4821 46.0771Z" fill="url(#paint34_linear_1788_21467)"/>
<path d="M81.0095 45.8349C81.1712 45.8349 83.3008 45.8292 83.3008 45.8292L83.249 28.8029L81.4441 28.8075C80.7392 28.8098 80.033 28.8121 79.3281 28.8144L77.5232 28.8213L77.533 31.1919C76.8454 31.1954 76.1553 31.1988 75.464 31.2023L75.4331 27.2099C79.1503 27.1892 82.8996 27.1777 86.6044 27.1777C89.955 27.1777 93.3463 27.1869 96.7092 27.2041L96.6807 31.1965C95.9894 31.1931 95.2993 31.1896 94.6117 31.1874L94.6203 28.8179L92.8154 28.8121C92.1105 28.8098 91.4043 28.8075 90.6994 28.8064L88.8945 28.8029L88.8538 45.8303C88.8538 45.8303 90.9834 45.8349 91.1451 45.8349L91.1389 47.4578C89.6266 47.4544 88.1081 47.4521 86.6057 47.4521C84.7514 47.4521 82.8786 47.4544 81.0145 47.4601L81.007 45.836L81.0095 45.8349Z" fill="url(#paint35_linear_1788_21467)"/>
<path d="M119.749 47.7332C113.62 47.6286 107.427 47.5528 101.288 47.5069L101.3 45.884L102.937 45.8966L103.084 28.8704L101.431 28.8578L101.444 27.2349C107.666 27.282 113.948 27.3589 120.17 27.4646L120.049 33.2786C118.789 33.2567 117.527 33.2372 116.272 33.2177L116.341 29.0255L114.536 29.0002C113.203 28.9807 111.869 28.9634 110.536 28.9474L108.731 28.9255L108.616 37.0814C108.616 37.0814 111.148 37.1125 111.511 37.1171V37.2216C111.146 37.217 108.615 37.186 108.615 37.186L108.492 45.9506L110.297 45.9724C111.616 45.9885 112.936 46.0057 114.257 46.0241L116.062 46.0494L116.141 41.2519C117.393 41.2702 118.643 41.2909 119.884 41.3116L119.751 47.7332H119.749Z" fill="url(#paint36_linear_1788_21467)"/>
<path d="M145.966 48.3567C143.717 48.2878 141.456 48.2235 139.212 48.1626L139.376 42.7047C139.409 41.6055 139.233 40.7395 138.835 40.0573C138.371 39.2613 137.609 38.6893 136.63 38.4033C135.927 38.1989 135.022 38.0863 133.86 38.0576L132.056 38.014L131.824 46.3502C131.824 46.3502 133.865 46.3996 133.984 46.4019L133.937 48.0248C130.836 47.949 127.707 47.8812 124.599 47.8203L124.633 46.1974L126.269 46.2296L126.652 29.2068L124.999 29.1747L125.033 27.5518C129.485 27.639 133.977 27.7413 138.416 27.8584C140.839 27.9227 142.648 28.3971 143.791 29.27C144.803 30.043 145.262 31.3305 145.196 33.2061C145.157 34.2674 144.903 35.1713 144.438 35.8926C144.028 36.53 143.507 36.9309 142.798 37.156L141.485 37.5741L141.701 40.4615L143.072 40.7004C144.12 40.8831 144.68 41.2518 144.629 42.6714L144.487 46.6879L146.025 46.735L145.966 48.3579V48.3567ZM132.066 37.6614L133.87 37.7107C134.463 37.7245 135.054 37.7395 135.647 37.7544C135.695 37.7544 135.742 37.7567 135.788 37.7567C137.14 37.7567 137.965 37.2513 138.419 36.8275C139.081 36.2096 139.434 35.3355 139.467 34.2283L139.501 33.136C139.534 32.0288 139.234 31.1376 138.608 30.4852C138.158 30.0177 137.322 29.4538 135.888 29.4182C135.293 29.4032 132.3 29.3309 132.3 29.3309L132.068 37.6625L132.066 37.6614Z" fill="url(#paint37_linear_1788_21467)"/>
<path d="M164.171 48.997C161.244 48.8799 158.293 48.7696 155.359 48.6662L155.423 47.0433L157.059 47.1007L157.274 41.8162L157.048 41.4177C155.019 37.8468 152.951 34.2369 150.901 30.6856L150.41 29.8345L149.854 29.8172L149.913 28.1943C152.967 28.2931 156.046 28.3988 159.106 28.5113L159.036 30.1331L157.056 30.0596L157.901 32.3762C158.483 33.967 159.063 35.5589 159.641 37.1508L160.037 38.2431L161.606 38.3039L162.844 38.351L163.336 37.2921C164.052 35.7496 164.77 34.2082 165.49 32.6668L166.538 30.4237L164.558 30.3456L164.631 28.7238C166.808 28.81 168.998 28.9007 171.176 28.9937L171.093 30.6155L170.522 30.5914L169.961 31.4218C167.671 34.8181 165.363 38.2649 163.101 41.6658L162.853 42.039L162.61 47.3109L164.246 47.3764L164.169 48.9982L164.171 48.997Z" fill="url(#paint38_linear_1788_21467)"/>
<defs>
<linearGradient id="paint0_linear_1788_21467" x1="0.129128" y1="25.7284" x2="173.06" y2="25.7284" gradientUnits="userSpaceOnUse">
<stop stop-color="#F9B208"/>
<stop offset="0.15" stop-color="#F9C548"/>
<stop offset="0.38" stop-color="#F9B208"/>
<stop offset="0.55" stop-color="#F9E0A4"/>
<stop offset="0.78" stop-color="#F9B208"/>
<stop offset="1" stop-color="#F9C23E"/>
</linearGradient>
<linearGradient id="paint1_linear_1788_21467" x1="0.128396" y1="25.7284" x2="173.059" y2="25.7284" gradientUnits="userSpaceOnUse">
<stop stop-color="#F9B208"/>
<stop offset="0.15" stop-color="#F9C548"/>
<stop offset="0.38" stop-color="#F9B208"/>
<stop offset="0.55" stop-color="#F9E0A4"/>
<stop offset="0.78" stop-color="#F9B208"/>
<stop offset="1" stop-color="#F9C23E"/>
</linearGradient>
<linearGradient id="paint2_linear_1788_21467" x1="0.12569" y1="25.7292" x2="173.056" y2="25.7292" gradientUnits="userSpaceOnUse">
<stop stop-color="#F9B208"/>
<stop offset="0.15" stop-color="#F9C548"/>
<stop offset="0.38" stop-color="#F9B208"/>
<stop offset="0.55" stop-color="#F9E0A4"/>
<stop offset="0.78" stop-color="#F9B208"/>
<stop offset="1" stop-color="#F9C23E"/>
</linearGradient>
<linearGradient id="paint3_linear_1788_21467" x1="0.128945" y1="25.7284" x2="173.059" y2="25.7284" gradientUnits="userSpaceOnUse">
<stop stop-color="#F9B208"/>
<stop offset="0.15" stop-color="#F9C548"/>
<stop offset="0.38" stop-color="#F9B208"/>
<stop offset="0.55" stop-color="#F9E0A4"/>
<stop offset="0.78" stop-color="#F9B208"/>
<stop offset="1" stop-color="#F9C23E"/>
</linearGradient>
<linearGradient id="paint4_linear_1788_21467" x1="0.132532" y1="25.728" x2="173.063" y2="25.728" gradientUnits="userSpaceOnUse">
<stop stop-color="#F9B208"/>
<stop offset="0.15" stop-color="#F9C548"/>
<stop offset="0.38" stop-color="#F9B208"/>
<stop offset="0.55" stop-color="#F9E0A4"/>
<stop offset="0.78" stop-color="#F9B208"/>
<stop offset="1" stop-color="#F9C23E"/>
</linearGradient>
<linearGradient id="paint5_linear_1788_21467" x1="0.128084" y1="25.7287" x2="173.059" y2="25.7287" gradientUnits="userSpaceOnUse">
<stop stop-color="#F9B208"/>
<stop offset="0.15" stop-color="#F9C548"/>
<stop offset="0.38" stop-color="#F9B208"/>
<stop offset="0.55" stop-color="#F9E0A4"/>
<stop offset="0.78" stop-color="#F9B208"/>
<stop offset="1" stop-color="#F9C23E"/>
</linearGradient>
<linearGradient id="paint6_linear_1788_21467" x1="0.129395" y1="25.7284" x2="173.06" y2="25.7284" gradientUnits="userSpaceOnUse">
<stop stop-color="#F9B208"/>
<stop offset="0.15" stop-color="#F9C548"/>
<stop offset="0.38" stop-color="#F9B208"/>
<stop offset="0.55" stop-color="#F9E0A4"/>
<stop offset="0.78" stop-color="#F9B208"/>
<stop offset="1" stop-color="#F9C23E"/>
</linearGradient>
<linearGradient id="paint7_linear_1788_21467" x1="0.13375" y1="25.7281" x2="173.064" y2="25.7281" gradientUnits="userSpaceOnUse">
<stop stop-color="#F9B208"/>
<stop offset="0.15" stop-color="#F9C548"/>
<stop offset="0.38" stop-color="#F9B208"/>
<stop offset="0.55" stop-color="#F9E0A4"/>
<stop offset="0.78" stop-color="#F9B208"/>
<stop offset="1" stop-color="#F9C23E"/>
</linearGradient>
<linearGradient id="paint8_linear_1788_21467" x1="0.133507" y1="25.7272" x2="173.064" y2="25.7272" gradientUnits="userSpaceOnUse">
<stop stop-color="#F9B208"/>
<stop offset="0.15" stop-color="#F9C548"/>
<stop offset="0.38" stop-color="#F9B208"/>
<stop offset="0.55" stop-color="#F9E0A4"/>
<stop offset="0.78" stop-color="#F9B208"/>
<stop offset="1" stop-color="#F9C23E"/>
</linearGradient>
<linearGradient id="paint9_linear_1788_21467" x1="0.126425" y1="25.7283" x2="173.057" y2="25.7283" gradientUnits="userSpaceOnUse">
<stop stop-color="#F9B208"/>
<stop offset="0.15" stop-color="#F9C548"/>
<stop offset="0.38" stop-color="#F9B208"/>
<stop offset="0.55" stop-color="#F9E0A4"/>
<stop offset="0.78" stop-color="#F9B208"/>
<stop offset="1" stop-color="#F9C23E"/>
</linearGradient>
<linearGradient id="paint10_linear_1788_21467" x1="0.134231" y1="25.7294" x2="173.065" y2="25.7294" gradientUnits="userSpaceOnUse">
<stop stop-color="#F9B208"/>
<stop offset="0.15" stop-color="#F9C548"/>
<stop offset="0.38" stop-color="#F9B208"/>
<stop offset="0.55" stop-color="#F9E0A4"/>
<stop offset="0.78" stop-color="#F9B208"/>
<stop offset="1" stop-color="#F9C23E"/>
</linearGradient>
<linearGradient id="paint11_linear_1788_21467" x1="0.129578" y1="25.7276" x2="173.06" y2="25.7276" gradientUnits="userSpaceOnUse">
<stop stop-color="#F9B208"/>
<stop offset="0.15" stop-color="#F9C548"/>
<stop offset="0.38" stop-color="#F9B208"/>
<stop offset="0.55" stop-color="#F9E0A4"/>
<stop offset="0.78" stop-color="#F9B208"/>
<stop offset="1" stop-color="#F9C23E"/>
</linearGradient>
<linearGradient id="paint12_linear_1788_21467" x1="0.133014" y1="25.7292" x2="173.063" y2="25.7292" gradientUnits="userSpaceOnUse">
<stop stop-color="#F9B208"/>
<stop offset="0.15" stop-color="#F9C548"/>
<stop offset="0.38" stop-color="#F9B208"/>
<stop offset="0.55" stop-color="#F9E0A4"/>
<stop offset="0.78" stop-color="#F9B208"/>
<stop offset="1" stop-color="#F9C23E"/>
</linearGradient>
<linearGradient id="paint13_linear_1788_21467" x1="86.5896" y1="49.8712" x2="86.5896" y2="1.7857" gradientUnits="userSpaceOnUse">
<stop stop-color="#F7FD04"/>
<stop offset="0.5" stop-color="#FCFDC5"/>
<stop offset="1" stop-color="#F7FD04"/>
</linearGradient>
<linearGradient id="paint14_linear_1788_21467" x1="86.5882" y1="49.8714" x2="86.5882" y2="1.78591" gradientUnits="userSpaceOnUse">
<stop stop-color="#F7FD04"/>
<stop offset="0.5" stop-color="#FCFDC5"/>
<stop offset="1" stop-color="#F7FD04"/>
</linearGradient>
<linearGradient id="paint15_linear_1788_21467" x1="86.5883" y1="49.8708" x2="86.5883" y2="1.7853" gradientUnits="userSpaceOnUse">
<stop stop-color="#F7FD04"/>
<stop offset="0.5" stop-color="#FCFDC5"/>
<stop offset="1" stop-color="#F7FD04"/>
</linearGradient>
<linearGradient id="paint16_linear_1788_21467" x1="86.5928" y1="49.8712" x2="86.5928" y2="1.78564" gradientUnits="userSpaceOnUse">
<stop stop-color="#F7FD04"/>
<stop offset="0.5" stop-color="#FCFDC5"/>
<stop offset="1" stop-color="#F7FD04"/>
</linearGradient>
<linearGradient id="paint17_linear_1788_21467" x1="86.59" y1="49.8726" x2="86.59" y2="1.7871" gradientUnits="userSpaceOnUse">
<stop stop-color="#F7FD04"/>
<stop offset="0.5" stop-color="#FCFDC5"/>
<stop offset="1" stop-color="#F7FD04"/>
</linearGradient>
<linearGradient id="paint18_linear_1788_21467" x1="86.5891" y1="49.871" x2="86.5891" y2="1.7855" gradientUnits="userSpaceOnUse">
<stop stop-color="#F7FD04"/>
<stop offset="0.5" stop-color="#FCFDC5"/>
<stop offset="1" stop-color="#F7FD04"/>
</linearGradient>
<linearGradient id="paint19_linear_1788_21467" x1="86.5914" y1="49.8703" x2="86.5914" y2="1.78486" gradientUnits="userSpaceOnUse">
<stop stop-color="#F7FD04"/>
<stop offset="0.5" stop-color="#FCFDC5"/>
<stop offset="1" stop-color="#F7FD04"/>
</linearGradient>
<linearGradient id="paint20_linear_1788_21467" x1="86.5888" y1="49.8718" x2="86.5888" y2="1.78631" gradientUnits="userSpaceOnUse">
<stop stop-color="#F7FD04"/>
<stop offset="0.5" stop-color="#FCFDC5"/>
<stop offset="1" stop-color="#F7FD04"/>
</linearGradient>
<linearGradient id="paint21_linear_1788_21467" x1="86.5888" y1="49.8707" x2="86.5888" y2="1.78521" gradientUnits="userSpaceOnUse">
<stop stop-color="#F7FD04"/>
<stop offset="0.5" stop-color="#FCFDC5"/>
<stop offset="1" stop-color="#F7FD04"/>
</linearGradient>
<linearGradient id="paint22_linear_1788_21467" x1="86.5934" y1="49.871" x2="86.5934" y2="1.7855" gradientUnits="userSpaceOnUse">
<stop stop-color="#F7FD04"/>
<stop offset="0.5" stop-color="#FCFDC5"/>
<stop offset="1" stop-color="#F7FD04"/>
</linearGradient>
<linearGradient id="paint23_linear_1788_21467" x1="86.5936" y1="49.8725" x2="86.5936" y2="1.78705" gradientUnits="userSpaceOnUse">
<stop stop-color="#F7FD04"/>
<stop offset="0.5" stop-color="#FCFDC5"/>
<stop offset="1" stop-color="#F7FD04"/>
</linearGradient>
<linearGradient id="paint24_linear_1788_21467" x1="86.592" y1="49.8725" x2="86.592" y2="1.78697" gradientUnits="userSpaceOnUse">
<stop stop-color="#F7FD04"/>
<stop offset="0.5" stop-color="#FCFDC5"/>
<stop offset="1" stop-color="#F7FD04"/>
</linearGradient>
<linearGradient id="paint25_linear_1788_21467" x1="86.5881" y1="49.8713" x2="86.5881" y2="1.78576" gradientUnits="userSpaceOnUse">
<stop stop-color="#F7FD04"/>
<stop offset="0.5" stop-color="#FCFDC5"/>
<stop offset="1" stop-color="#F7FD04"/>
</linearGradient>
<linearGradient id="paint26_linear_1788_21467" x1="86.6015" y1="25.6993" x2="86.6015" y2="4.0053" gradientUnits="userSpaceOnUse">
<stop stop-color="#F000ED"/>
<stop offset="0.13" stop-color="#E40EED"/>
<stop offset="0.37" stop-color="#C734EE"/>
<stop offset="0.7" stop-color="#9872F0"/>
<stop offset="1" stop-color="#69AFF3"/>
</linearGradient>
<linearGradient id="paint27_linear_1788_21467" x1="86.6032" y1="25.6985" x2="86.6032" y2="4.00454" gradientUnits="userSpaceOnUse">
<stop stop-color="#F000ED"/>
<stop offset="0.13" stop-color="#E40EED"/>
<stop offset="0.37" stop-color="#C734EE"/>
<stop offset="0.7" stop-color="#9872F0"/>
<stop offset="1" stop-color="#69AFF3"/>
</linearGradient>
<linearGradient id="paint28_linear_1788_21467" x1="86.5991" y1="25.6987" x2="86.5991" y2="4.00473" gradientUnits="userSpaceOnUse">
<stop stop-color="#F000ED"/>
<stop offset="0.13" stop-color="#E40EED"/>
<stop offset="0.37" stop-color="#C734EE"/>
<stop offset="0.7" stop-color="#9872F0"/>
<stop offset="1" stop-color="#69AFF3"/>
</linearGradient>
<linearGradient id="paint29_linear_1788_21467" x1="86.5944" y1="25.6999" x2="86.5944" y2="4.00591" gradientUnits="userSpaceOnUse">
<stop stop-color="#F000ED"/>
<stop offset="0.13" stop-color="#E40EED"/>
<stop offset="0.37" stop-color="#C734EE"/>
<stop offset="0.7" stop-color="#9872F0"/>
<stop offset="1" stop-color="#69AFF3"/>
</linearGradient>
<linearGradient id="paint30_linear_1788_21467" x1="86.5969" y1="25.7012" x2="86.5969" y2="4.00728" gradientUnits="userSpaceOnUse">
<stop stop-color="#F000ED"/>
<stop offset="0.13" stop-color="#E40EED"/>
<stop offset="0.37" stop-color="#C734EE"/>
<stop offset="0.7" stop-color="#9872F0"/>
<stop offset="1" stop-color="#69AFF3"/>
</linearGradient>
<linearGradient id="paint31_linear_1788_21467" x1="86.6013" y1="25.6991" x2="86.6013" y2="4.0051" gradientUnits="userSpaceOnUse">
<stop stop-color="#F000ED"/>
<stop offset="0.13" stop-color="#E40EED"/>
<stop offset="0.37" stop-color="#C734EE"/>
<stop offset="0.7" stop-color="#9872F0"/>
<stop offset="1" stop-color="#69AFF3"/>
</linearGradient>
<linearGradient id="paint32_linear_1788_21467" x1="86.5985" y1="25.7012" x2="86.5985" y2="4.00722" gradientUnits="userSpaceOnUse">
<stop stop-color="#F000ED"/>
<stop offset="0.13" stop-color="#E40EED"/>
<stop offset="0.37" stop-color="#C734EE"/>
<stop offset="0.7" stop-color="#9872F0"/>
<stop offset="1" stop-color="#69AFF3"/>
</linearGradient>
<linearGradient id="paint33_linear_1788_21467" x1="86.5982" y1="25.6999" x2="86.5982" y2="4.00593" gradientUnits="userSpaceOnUse">
<stop stop-color="#F000ED"/>
<stop offset="0.13" stop-color="#E40EED"/>
<stop offset="0.37" stop-color="#C734EE"/>
<stop offset="0.7" stop-color="#9872F0"/>
<stop offset="1" stop-color="#69AFF3"/>
</linearGradient>
<linearGradient id="paint34_linear_1788_21467" x1="86.6024" y1="25.7005" x2="86.6024" y2="4.00656" gradientUnits="userSpaceOnUse">
<stop stop-color="#F000ED"/>
<stop offset="0.13" stop-color="#E40EED"/>
<stop offset="0.37" stop-color="#C734EE"/>
<stop offset="0.7" stop-color="#9872F0"/>
<stop offset="1" stop-color="#69AFF3"/>
</linearGradient>
<linearGradient id="paint35_linear_1788_21467" x1="86.602" y1="25.6984" x2="86.602" y2="4.00444" gradientUnits="userSpaceOnUse">
<stop stop-color="#F000ED"/>
<stop offset="0.13" stop-color="#E40EED"/>
<stop offset="0.37" stop-color="#C734EE"/>
<stop offset="0.7" stop-color="#9872F0"/>
<stop offset="1" stop-color="#69AFF3"/>
</linearGradient>
<linearGradient id="paint36_linear_1788_21467" x1="86.5996" y1="25.6992" x2="86.5996" y2="4.0053" gradientUnits="userSpaceOnUse">
<stop stop-color="#F000ED"/>
<stop offset="0.13" stop-color="#E40EED"/>
<stop offset="0.37" stop-color="#C734EE"/>
<stop offset="0.7" stop-color="#9872F0"/>
<stop offset="1" stop-color="#69AFF3"/>
</linearGradient>
<linearGradient id="paint37_linear_1788_21467" x1="86.5983" y1="25.7003" x2="86.5983" y2="4.00633" gradientUnits="userSpaceOnUse">
<stop stop-color="#F000ED"/>
<stop offset="0.13" stop-color="#E40EED"/>
<stop offset="0.37" stop-color="#C734EE"/>
<stop offset="0.7" stop-color="#9872F0"/>
<stop offset="1" stop-color="#69AFF3"/>
</linearGradient>
<linearGradient id="paint38_linear_1788_21467" x1="86.5992" y1="25.6997" x2="86.5992" y2="4.00572" gradientUnits="userSpaceOnUse">
<stop stop-color="#F000ED"/>
<stop offset="0.13" stop-color="#E40EED"/>
<stop offset="0.37" stop-color="#C734EE"/>
<stop offset="0.7" stop-color="#9872F0"/>
<stop offset="1" stop-color="#69AFF3"/>
</linearGradient>
</defs>
</svg>
