<svg width="22" height="22" viewBox="0 0 22 22" fill="none" xmlns="http://www.w3.org/2000/svg">
<path d="M11 21C5.47715 21 0.999999 16.5228 1 11C1 5.47715 5.47715 0.999999 11 1C16.5228 1 21 5.47715 21 11C21 16.5228 16.5228 21 11 21Z" fill="#0052B5"/>
<path d="M20.3701 7.5C18.9514 3.70333 15.2913 1 10.9997 1C6.7082 0.999999 3.04807 3.70333 1.62933 7.5L20.3701 7.5Z" fill="white"/>
<path d="M1.62988 14.5C3.04862 18.2967 6.70875 21 11.0003 21C15.2918 21 18.9519 18.2967 20.3707 14.5L1.62988 14.5Z" fill="#D90026"/>
</svg>
